<svg xmlns="http://www.w3.org/2000/svg" viewBox="0 0 200 200" width="200" height="200">
  <defs>
    <linearGradient id="top" x1="0%" y1="0%" x2="0%" y2="100%">
      <stop offset="0%" style="stop-color:#93C5FD"/>
      <stop offset="100%" style="stop-color:#3B82F6"/>
    </linearGradient>
    <linearGradient id="left" x1="0%" y1="0%" x2="100%" y2="100%">
      <stop offset="0%" style="stop-color:#2563EB"/>
      <stop offset="100%" style="stop-color:#1E40AF"/>
    </linearGradient>
    <linearGradient id="right" x1="100%" y1="0%" x2="0%" y2="100%">
      <stop offset="0%" style="stop-color:#3B82F6"/>
      <stop offset="100%" style="stop-color:#1D4ED8"/>
    </linearGradient>
    <linearGradient id="mGrad" x1="0%" y1="0%" x2="0%" y2="100%">
      <stop offset="0%" style="stop-color:#FFFFFF"/>
      <stop offset="100%" style="stop-color:#BFDBFE"/>
    </linearGradient>
    <filter id="glow">
      <feGaussianBlur stdDeviation="1.5" result="blur"/>
      <feMerge>
        <feMergeNode in="blur"/>
        <feMergeNode in="SourceGraphic"/>
      </feMerge>
    </filter>
  </defs>
  <polygon points="100,30 160,63 100,96 40,63" fill="url(#top)"/>
  <polygon points="40,63 100,96 100,162 40,129" fill="url(#left)"/>
  <polygon points="160,63 100,96 100,162 160,129" fill="url(#right)"/>
  <line x1="100" y1="96" x2="100" y2="162" stroke="white" stroke-opacity="0.12" stroke-width="0.8"/>
  <line x1="100" y1="96" x2="40" y2="63" stroke="white" stroke-opacity="0.08" stroke-width="0.8"/>
  <line x1="100" y1="96" x2="160" y2="63" stroke="white" stroke-opacity="0.08" stroke-width="0.8"/>
  <g filter="url(#glow)" transform="translate(108,104)">
    <text x="0" y="0" font-family="'SF Pro Display', 'Helvetica Neue', Arial, sans-serif" font-size="28" font-weight="800" fill="url(#mGrad)" letter-spacing="-1">m</text>
    <text x="0.5" y="0.5" font-family="'SF Pro Display', 'Helvetica Neue', Arial, sans-serif" font-size="28" font-weight="800" fill="rgba(0,0,0,0.15)" letter-spacing="-1">m</text>
  </g>
</svg>
